Coordinates
version=1
nRows=9
nColumns=24
inDegrees=yes

Units are S.I. units (second, meters, Newtons, ...)
Angles are in degrees.

endheader
time	pelvis_tilt	pelvis_list	pelvis_rotation	pelvis_tx	pelvis_ty	pelvis_tz	hip_flexion_r	hip_adduction_r	hip_rotation_r	knee_angle_r	ankle_angle_r	subtalar_angle_r	mtp_angle_r	hip_flexion_l	hip_adduction_l	hip_rotation_l	knee_angle_l	ankle_angle_l	subtalar_angle_l	mtp_angle_l	lumbar_extension	lumbar_bending	lumbar_rotation
      1.00800000	     -7.01187178	     -2.57969215	     -1.31759141	     -0.07996091	      1.03453202	      0.33528150	     -5.96459046	      5.38967613	     -2.93382253	    -10.60682482	     19.56444612	      4.58626738	      5.68625715	     31.24154817	     -2.57707244	     -0.19284905	     -1.28852006	      5.41490618	      5.88519773	      4.37532060	    -14.54417103	      6.02258026	      6.42810206
      1.01216667	     -6.95289488	     -2.53601367	     -1.39298610	     -0.07392365	      1.03374883	      0.33522048	     -6.13555133	      5.28387553	     -2.99037032	    -11.14321949	     19.73731664	      4.83782577	      5.76582954	     31.27474997	     -2.47222836	     -0.08601729	     -1.76991423	      5.32690981	      5.71414107	      4.38383974	    -14.56965905	      5.86378878	      6.40365357
      1.01633333	     -6.92837068	     -2.48332355	     -1.47045045	     -0.06783829	      1.03292877	      0.33517099	     -6.25845556	      5.16709830	     -3.04297076	    -11.70867447	     19.89386354	      5.08359984	      5.86131368	     31.34763944	     -2.36195906	      0.02640026	     -2.31842683	      5.19811696	      5.51949017	      4.40498962	    -14.54035145	      5.69137016	      6.37048764
      1.02050000	     -6.86321391	     -2.40691382	     -1.55521132	     -0.06171981	      1.03224489	      0.33515942	     -6.41845179	      5.02442770	     -3.05605588	    -12.28682533	     20.02203430	      5.27890356	      5.94911196	     31.36396774	     -2.23675094	      0.13255194	     -2.90166480	      5.04318001	      5.33657365	      4.42872509	    -14.57073910	      5.47015321	      6.32634245
      1.02466667	     -6.81165996	     -2.33769489	     -1.62054486	     -0.05557278	      1.03155462	      0.33507202	     -6.53892386	      4.87761356	     -3.18213970	    -12.91788169	     20.10854295	      5.60572125	      6.11415412	     31.40278113	     -2.10594857	      0.27784074	     -3.54174601	      4.81317481	      5.07375671	      4.47987391	    -14.56590206	      5.28838239	      6.28750442
      1.02883333	     -6.78670844	     -2.25979010	     -1.69767542	     -0.04937953	      1.03086714	      0.33503641	     -6.62707879	      4.72588864	     -3.23575222	    -13.55864935	     20.17488301	      5.84187582	      6.28393581	     31.47136528	     -1.97871620	      0.40060043	     -4.23418835	      4.55371134	      4.82285638	      4.53388524	    -14.51716733	      5.07582820	      6.23947332
      1.03300000	     -6.75315577	     -2.16194558	     -1.78514511	     -0.04316389	      1.03024575	      0.33502169	     -6.70369009	      4.54838772	     -3.27074849	    -14.24285335	     20.20926093	      6.05333593	      6.44191144	     31.51993392	     -1.84055038	      0.52144367	     -4.94440540	      4.27160841	      4.58141594	      4.58193042	    -14.49284024	      4.82071805	      6.17672187
      1.03716667	     -6.72324959	     -2.07018975	     -1.86223028	     -0.03692589	      1.02965620	      0.33497620	     -6.75782793	      4.37057496	     -3.35908502	    -14.96341590	     20.19910108	      6.32324840	      6.63487780	     31.58125989	     -1.70479948	      0.65690234	     -5.70224039	      3.94754550	      4.30301765	      4.63593901	    -14.45185966	      4.58900609	      6.11825151
      1.04133333	     -6.68839171	     -1.96913646	     -1.94130080	     -0.03066069	      1.02911989	      0.33491784	     -6.79801379	      4.17649077	     -3.45069477	    -15.72213958	     20.15869139	      6.60118616	      6.86734635	     31.63422855	     -1.56297803	      0.78357268	     -6.48050813	      3.59249853	      4.00789027	      4.69483523	    -14.40548056	      4.33983033	      6.05087255
